<?xml version="1.0" encoding="UTF-8"?>
<svg id="Layer_1" data-name="Layer 1" xmlns="http://www.w3.org/2000/svg" viewBox="0 0 1679.3 1030.76">
  <defs>
    <style>
      .cls-1 {
        fill: #b0b5b7;
        stroke-width: 0px;
      }
    </style>
  </defs>
  <path class="cls-1" d="M840.3,467.82c-159.91,116.29-318.13,231.35-478.84,348.25-30.49-22.62-60.46-45.19-90.91-67.4-85.41-62.27-170.9-124.51-256.75-186.45-9.79-7.05-13.96-14.08-13.8-24.14.72-43.73.32-87.46.32-131.15v-13.82c120.75,88.01,239.38,174.5,361.7,263.65,30.81-23.29,58.05-44.43,86.09-65.01,56.93-41.75,114.9-82.73,171.22-124.89,55.88-41.8,86.77-93.26,97.48-150.28,8.3-44.08,12.68-88.68,15.57-133.17,3.01-46.58,41.32-76.03,105.91-76.93,39.76-.55,78.07,1.87,112.77,19.39,10.19,5.13,27.08,3.26,40.92,4.58,45.97,4.43,67.28,24.43,61.86,61.16-19.78-15.48-40.48-8.48-61.78-4.23-53.16,10.55-56.57,10.58-49.18,49.85,8.18,43.49,20.14,86.93,36.03,129.29,15.36,40.9,50.95,74.98,90.7,105.06,81,61.28,164.76,120.6,249.69,182.4,118.71-86.87,236.57-173.13,354.39-259.36,1.85.61,3.65,1.22,5.5,1.87v18.1c0,42.27.36,84.54-.36,126.78-.12,6.12-2.89,13.96-8.5,18.07-114.9,84.16-230.35,167.88-345.73,251.67-1.81,1.31-4.17,2.24-7.1,3.79-158.54-115.32-316.68-230.39-477.15-347.11l-.04.03h0Z"/>
  <path class="cls-1" d="M1679.19,0v10.92c0,46.59.28,93.15-.36,139.75-.08,5.8-2.73,13.21-7.94,17.11-160.27,119.4-321.02,238.43-481.73,357.5-.92.68-2.25,1.01-1.77.8-36.75-27.46-73.13-54.65-108.44-81.04C1276.45,298.6,1476.55,150.23,1679.18,0h0Z"/>
  <path class="cls-1" d="M.29.18c202.15,149.95,401.77,298.03,600.39,445.36-35.22,26.24-71.37,53.23-108.72,81.04-2.41-1.52-6.62-3.75-10.23-6.43C325.27,404.21,168.74,288.3,12.8,171.97c-6.98-5.21-11.83-14.37-12-21.75C-.24,100.83.24,51.41.24.18h.05Z"/>
  <path class="cls-1" d="M976.01,622.09c33.18,24.72,69.32,51.68,104.34,77.77-148.67,110.2-298.31,221.15-446.3,330.9-34.54-25.32-71.01-52.04-105.47-77.27,147.91-109.55,297.55-220.4,447.43-331.41h0Z"/>
  <path class="cls-1" d="M946.81,599.83c-149.2,110.56-298.91,221.5-447.39,331.56-35.42-25.56-72.09-52.01-106.79-77.03,149.76-111.09,299.63-222.28,448.55-332.75,33.7,24.93,70,51.83,105.63,78.22h0Z"/>
  <path class="cls-1" d="M1319.98,627.03c-37.43-27.58-73.82-54.39-109.24-80.51,155.01-114.96,310.31-230.13,466.6-346.02.6,2.89,1.77,5.89,1.81,8.93.12,47.07.36,94.17-.28,141.23-.08,5.77-3.01,13.09-8.22,16.99-115.38,86.13-231.24,171.91-347.05,257.71-.92.65-2.21,1.04-3.53,1.67h-.09Z"/>
  <path class="cls-1" d="M.29,201.66c155.98,115.77,310.59,230.52,464.07,344.41-34.5,25.59-71.13,52.72-109.32,81.07-31.53-23.71-64.63-48.85-98.09-73.7-81.12-60.31-162.59-120.32-243.19-181.01-7.34-5.53-12.72-15.14-12.88-22.94-1.16-48.97-.6-97.94-.6-147.81v-.03h.01Z"/>
  <path class="cls-1" d="M1041.89,1028.53c-57.93-42.93-116.22-86.1-173.95-128.89,35.58-26.3,71.89-53.14,107.03-79.14,57.37,42.6,115.58,85.83,172.74,128.26-34.34,25.85-70.53,53.14-105.87,79.74l.04.03h.01Z"/>
  <path class="cls-1" d="M1003.66,799.83c35.46-26.33,71.21-52.87,105.35-78.19,57.73,42.87,116.34,86.4,173.51,128.92-33.26,25.38-68.96,52.63-104.18,79.5-58.69-43.74-116.82-87.08-174.67-130.22h0Z"/>
</svg>