<?xml version="1.0" encoding="UTF-8"?>
<svg id="Layer_1" data-name="Layer 1" xmlns="http://www.w3.org/2000/svg" viewBox="0 0 1688.03 1064">
  <defs>
    <style>
      .cls-1 {
        fill: #fdfdfd;
      }

      .cls-1, .cls-2 {
        stroke-width: 0px;
      }

      .cls-2 {
        fill: #b0b5b7;
      }
    </style>
  </defs>
  <path class="cls-1" d="M1688,1064H0V0h1688v1064ZM849.04,499.03c160.47,119.13,318.65,236.56,477.15,354.26,2.89-1.58,5.26-2.53,7.1-3.87,115.38-85.51,230.87-170.96,345.73-256.85,5.62-4.2,8.42-12.2,8.5-18.45.72-43.14.36-86.28.36-129.39v-18.48c-1.85-.62-3.65-1.25-5.5-1.9-117.86,88.04-235.69,176.04-354.39,264.7-84.93-63.07-168.73-123.62-249.69-186.16-39.76-30.7-75.34-65.48-90.7-107.23-15.93-43.23-27.84-87.53-36.03-131.95-7.38-40.11-4.01-40.11,49.18-50.88,21.3-4.31,41.96-11.48,61.78,4.31,5.42-37.49-15.89-57.9-61.86-62.42-13.84-1.37-30.73.57-40.92-4.67-34.7-17.88-73.01-20.35-112.77-19.79-64.55.92-102.9,30.97-105.91,78.52-2.85,45.4-7.26,90.89-15.57,135.91-10.75,58.2-41.6,110.68-97.48,153.37-56.32,43.02-114.33,84.85-171.22,127.46-28.04,21-55.28,42.58-86.09,66.35-122.32-90.98-240.94-179.26-361.7-269.08v14.1c0,44.63.4,89.26-.32,133.85-.16,10.26,4.01,17.43,13.8,24.63,85.89,63.22,171.34,126.74,256.75,190.29,30.45,22.67,60.42,45.7,90.91,68.79,160.71-119.31,318.93-236.74,478.84-355.42l.04-.03ZM1687.93,23.77c-202.59,150.22-402.7,298.59-600.23,445.03,35.3,26.39,71.69,53.58,108.44,81.04-.48.21.88-.12,1.77-.8,160.71-119.07,321.46-238.11,481.73-357.5,5.22-3.9,7.86-11.31,7.94-17.11.64-46.56.36-93.15.36-139.75v-10.92ZM9.03,23.95c0,51.23-.52,100.65.56,150.04.16,7.38,5.01,16.54,12,21.75,155.94,116.33,312.43,232.21,468.89,348.16,3.61,2.68,7.78,4.91,10.23,6.43,37.31-27.82,73.49-54.8,108.72-81.04C410.8,321.98,211.14,173.9,9.03,23.95ZM984.75,645.86c-149.88,111-299.55,221.86-447.43,331.41,34.46,25.23,70.89,51.95,105.47,77.27,148.03-109.76,297.67-220.67,446.3-330.9-34.98-26.09-71.13-53.05-104.34-77.77h0ZM955.55,623.6c-35.66-26.39-71.97-53.29-105.63-78.22-148.87,110.44-298.79,221.65-448.55,332.75,34.66,25.02,71.37,51.47,106.79,77.03,148.47-110.02,298.23-221,447.39-331.56h0ZM1328.72,650.8c1.32-.62,2.65-.98,3.53-1.67,115.82-85.8,231.72-171.58,347.05-257.71,5.26-3.93,8.14-11.25,8.22-16.99.64-47.07.4-94.17.28-141.23,0-3-1.16-6.04-1.81-8.93-156.26,115.88-311.59,231.05-466.6,346.02,35.42,26.09,71.85,52.93,109.24,80.51h.08ZM9.03,225.43c0,49.86-.56,98.87.6,147.81.2,7.8,5.54,17.38,12.88,22.94,80.56,60.69,162.07,120.7,243.19,181.01,33.46,24.87,66.55,49.98,98.09,73.7,38.23-28.32,74.82-55.49,109.32-81.07C319.61,455.95,165.04,341.23,9.03,225.43ZM1050.63,1052.3c35.34-26.63,71.53-53.88,105.87-79.74-57.17-42.43-115.38-85.66-172.74-128.26-35.18,26-71.49,52.84-107.03,79.14,57.73,42.78,115.98,85.95,173.95,128.89l-.04-.03ZM1012.4,823.6c57.85,43.14,115.98,86.46,174.67,130.22,35.22-26.87,70.97-54.12,104.18-79.5-57.21-42.49-115.82-86.01-173.51-128.92-34.14,25.32-69.88,51.86-105.35,78.19Z"/>
  <path class="cls-2" d="M849.04,491.59c-159.91,116.29-318.13,231.35-478.84,348.25-30.49-22.62-60.46-45.19-90.91-67.4-85.41-62.27-170.9-124.51-256.75-186.45-9.79-7.05-13.96-14.08-13.8-24.14.72-43.73.32-87.46.32-131.15v-13.82c120.75,88.01,239.38,174.5,361.7,263.65,30.81-23.29,58.05-44.43,86.09-65.01,56.93-41.75,114.9-82.73,171.22-124.89,55.88-41.8,86.77-93.26,97.48-150.28,8.3-44.08,12.68-88.68,15.57-133.17,3.01-46.58,41.32-76.03,105.91-76.93,39.76-.55,78.07,1.87,112.77,19.39,10.19,5.13,27.08,3.26,40.92,4.58,45.97,4.43,67.28,24.43,61.86,61.16-19.78-15.48-40.48-8.48-61.78-4.23-53.16,10.55-56.57,10.58-49.18,49.85,8.18,43.49,20.14,86.93,36.03,129.29,15.36,40.9,50.95,74.98,90.7,105.06,81,61.28,164.76,120.6,249.69,182.4,118.71-86.87,236.57-173.13,354.39-259.36,1.85.61,3.65,1.22,5.5,1.87v18.1c0,42.27.36,84.54-.36,126.78-.12,6.12-2.89,13.96-8.5,18.07-114.9,84.16-230.35,167.88-345.73,251.67-1.81,1.31-4.17,2.24-7.1,3.79-158.54-115.32-316.68-230.39-477.15-347.11l-.04.03Z"/>
  <path class="cls-2" d="M1687.93,23.77v10.92c0,46.59.28,93.15-.36,139.75-.08,5.8-2.73,13.21-7.94,17.11-160.27,119.4-321.02,238.43-481.73,357.5-.92.68-2.25,1.01-1.77.8-36.75-27.46-73.13-54.65-108.44-81.04,197.5-146.44,397.6-294.81,600.23-445.03h0Z"/>
  <path class="cls-2" d="M9.03,23.95c202.15,149.95,401.77,298.03,600.39,445.36-35.22,26.24-71.37,53.23-108.72,81.04-2.41-1.52-6.62-3.75-10.23-6.43C334.01,427.98,177.48,312.07,21.54,195.74c-6.98-5.21-11.83-14.37-12-21.75-1.04-49.39-.56-98.81-.56-150.04h.04Z"/>
  <path class="cls-2" d="M984.75,645.86c33.18,24.72,69.32,51.68,104.34,77.77-148.67,110.2-298.31,221.15-446.3,330.9-34.54-25.32-71.01-52.04-105.47-77.27,147.91-109.55,297.55-220.4,447.43-331.41Z"/>
  <path class="cls-2" d="M955.55,623.6c-149.2,110.56-298.91,221.5-447.39,331.56-35.42-25.56-72.09-52.01-106.79-77.03,149.76-111.09,299.63-222.28,448.55-332.75,33.7,24.93,70,51.83,105.63,78.22h0Z"/>
  <path class="cls-2" d="M1328.72,650.8c-37.43-27.58-73.82-54.39-109.24-80.51,155.01-114.96,310.31-230.13,466.6-346.02.6,2.89,1.77,5.89,1.81,8.93.12,47.07.36,94.17-.28,141.23-.08,5.77-3.01,13.09-8.22,16.99-115.38,86.13-231.24,171.91-347.05,257.71-.92.65-2.21,1.04-3.53,1.67h-.08Z"/>
  <path class="cls-2" d="M9.03,225.43c155.98,115.77,310.59,230.52,464.07,344.41-34.5,25.59-71.13,52.72-109.32,81.07-31.53-23.71-64.63-48.85-98.09-73.7-81.12-60.31-162.59-120.32-243.19-181.01-7.34-5.53-12.72-15.14-12.88-22.94-1.16-48.97-.6-97.94-.6-147.81v-.03Z"/>
  <path class="cls-2" d="M1050.63,1052.3c-57.93-42.93-116.22-86.1-173.95-128.89,35.58-26.3,71.89-53.14,107.03-79.14,57.37,42.6,115.58,85.83,172.74,128.26-34.34,25.85-70.53,53.14-105.87,79.74l.04.03Z"/>
  <path class="cls-2" d="M1012.4,823.6c35.46-26.33,71.21-52.87,105.35-78.19,57.73,42.87,116.34,86.4,173.51,128.92-33.26,25.38-68.96,52.63-104.18,79.5-58.69-43.74-116.82-87.08-174.67-130.22h0Z"/>
</svg>