<?xml version="1.0" encoding="UTF-8"?>
<svg id="Layer_1" xmlns="http://www.w3.org/2000/svg" viewBox="0 0 9.96 1.29">
  <defs>
    <style>
      .cls-1 {
        fill: #1E1E1E;
      }
    </style>
  </defs>
  <path class="cls-1" d="M9.96,1.13s0-.07-.01-.06v.08s.01-.02.01-.02Z"/>
  <path class="cls-1" d="M9.87.98s-.04.11-.03.19c.02-.08.02-.05.04-.14.02,0,.03.03.02.06,0-.02.02.02.03-.03-.02-.06-.04-.07-.07-.02,0-.02,0-.04,0-.06Z"/>
  <path class="cls-1" d="M8.48.67h0s0,0,0,0Z"/>
  <path class="cls-1" d="M7.64.39s.01,0,.01-.01c0,0-.01,0-.01.01Z"/>
  <path class="cls-1" d="M7.52.26h0s0,0,0,0Z"/>
  <path class="cls-1" d="M8.48.67l-.02-.03s0,.02.02.03Z"/>
  <path class="cls-1" d="M9.66,1.17s.01-.01.01-.02c0,0-.01,0-.01,0h0Z"/>
  <path class="cls-1" d="M8.86.68h0s0-.02.01-.03l-.02.03Z"/>
  <path class="cls-1" d="M9.15.71s-.02.07-.02.1c0-.03.01-.04.02-.05,0-.01,0-.03,0-.05Z"/>
  <path class="cls-1" d="M9.61.88h0s0,0,0,0Z"/>
  <path class="cls-1" d="M8.66.62s0-.02,0-.03v.03Z"/>
  <path class="cls-1" d="M.34,1.21s0-.01,0-.01c0,0,0,.01,0,.01Z"/>
  <polygon class="cls-1" points="0 .85 .01 .85 .01 .81 0 .85"/>
  <path class="cls-1" d="M7.27.09h0s0,0,0,0Z"/>
  <path class="cls-1" d="M4.61.26c.04.05-.03.09.03.15-.01-.03.01-.12-.03-.15Z"/>
  <path class="cls-1" d="M9.65,1.16h-.01s.01,0,.01,0Z"/>
  <polygon class="cls-1" points="4.65 .4 4.65 .4 4.65 .41 4.65 .4"/>
  <path class="cls-1" d="M6.6,0s0,.02,0,.03c0,0,0-.02,0-.03Z"/>
  <path class="cls-1" d="M7.07.19h0s0,0,0,0Z"/>
  <path class="cls-1" d="M6.32.07s0-.02-.02,0h0s0,0,.02,0Z"/>
  <polygon class="cls-1" points="6.05 .07 6.05 .08 6.06 .08 6.05 .07"/>
  <path class="cls-1" d="M1.13,1.19v-.06s-.05.07,0,.06Z"/>
  <path class="cls-1" d="M9.66,1.13s0,.03,0,.03h0s0-.02,0-.03Z"/>
  <path class="cls-1" d="M6.28.63h-.04s.02,0,.04,0Z"/>
  <path class="cls-1" d="M3,1.11h0s0,0,0,0Z"/>
  <path class="cls-1" d="M6.14.62s-.01-.04-.02-.05c0,0,0,.01,0,.02l.02.03Z"/>
  <path class="cls-1" d="M1.12,1.12h0s0,0,0,0Z"/>
  <path class="cls-1" d="M.85,1.29s.02-.09.03-.14c.05-.03.02.07.04.12.03-.02.05-.11.07-.11,0,.02,0,.02,0,.04.03-.07.09,0,.13-.09v.02s0-.09,0-.13c.02,0,.03-.06.04,0-.01,0-.01.02-.02.04l.02-.03c.02.09-.03.03-.03.09.04-.03.08-.1.11-.08,0,.08-.06.03-.03.1l-.04-.03c.03.13-.03,0,0,.13.06.02.06-.04.12-.02.01-.05,0-.07,0-.12.08-.09.06.21.12.1.01-.06.02-.16.06-.11v.1s.02-.14.07-.07c0,.04-.04.03-.03.04.04.08.03-.05.05-.06v.08c.07-.01.13-.08.19-.09,0,.03-.01.05,0,.08.08-.04.17,0,.25.05l.03-.07s.01.03,0,.05c.03.03,0-.05.01-.08.02,0,.02.04.01.06.05-.06.15-.14.21-.06v.02s.03-.15.08-.09h0c.1.04.2-.03.28.07,0-.11.1.04.09-.11.06.07.05.1.13.14.02,0,.02-.09.05-.11v.08s.03-.08.03-.08l.03.09.02-.02s-.02-.03-.02-.05c.03-.04.1.04.1.08l.08-.07s-.01.04-.02.06c.04-.08.02.08.05,0,0-.02,0-.05,0-.06.03.04.08.04.11.02v.05c.07,0,.13-.04.21-.05-.03-.02-.04-.11-.01-.12l.02.08c0-.05-.03-.03,0-.09.03,0,.03.09.02.12l.03-.03s0,.04,0,.07c0-.05.07.07.08-.02v.02c.08-.01.11-.04.17-.06,0-.07.02-.06.03-.12.05.02.1.06.16.05.03-.04,0-.06.01-.1.01.06.07.05.05.1.06-.02.08-.03.15-.09-.01-.02-.03-.03-.02-.06.01-.01.04.02.04.05h0c.07-.11.24.15.29,0h0s.06-.08.06-.08c.04,0,0,.05.02.08.06-.12.13-.01.18-.1.1.17.17-.06.27.04l-.02-.04s.03.02.04.03c-.01-.03-.03-.03-.02-.06.13-.09.31-.01.46,0,.05,0-.02-.23.07-.14v.08c.08-.12.21-.04.29-.13,0,.02,0,.04-.01.05.03.06.08,0,.07-.05.02,0,0,.04.02.07.02.03.05-.08.06-.02,0,0,0,.02,0,.02.01-.03.06,0,.05-.06.04.03.07-.03.1,0,.02-.08.06.04.07-.07,0,.11.06.09.09.04,0,.03.02.04,0,.08.03,0,.05-.02.05-.08.04.14.11-.1.12.08.09-.05.17-.08.25-.09-.02.11-.08,0-.1.11.08-.04.14-.12.2-.08.02.02-.02.05-.03.06.08-.03.13.04.21,0,0,.01-.01.02-.02.03.01,0,.02.02.04-.03h-.02c0-.07.09-.13.1-.17-.06.14.05.05-.03.22.01,0,.03-.03.03-.06,0,.01,0,.03-.01.07.05-.02.05-.07.09-.06,0,.02-.02.03-.03.06.03-.04.07-.08.1-.05,0,.01,0,.03-.02.03.06,0,.14-.1.19-.03-.05.1.01.04-.01.13l.04-.02v-.05s.08-.05.09,0l-.03.03h.06s-.02-.04-.02-.04c.04-.04.03-.11.06-.08-.01,0,.03.01.03.07h0s.05-.05.06-.02c0,.03-.03.1-.04.12.04-.07.08,0,.12-.07-.01.02-.03.06-.03.07l.03-.06s0,.03,0,.07c.04.02.02-.12.06-.05,0,0,0,.01-.02.02.04.04.11,0,.15.03-.01.09-.05,0-.05.09.07,0,.17-.07.24-.03h0c.04-.14.03.06.08.01-.01,0-.03.07-.02.05.04.03.1,0,.18-.03l-.02.03s.07.03.1.06c.02-.03.03-.02.03-.07.05.21.2-.06.25.11,0,0-.03.02-.02.03l.08-.02c0-.06,0-.04,0-.08.01-.03.04-.05.06-.05-.04.03-.02.09,0,.13v-.05c.03.11.04-.11.07-.04v.03s.04-.05.06-.04c0,.07-.02.03-.03.08.03,0,.07-.12.09-.05-.01.02-.03.01-.05.03.02.08.02.06.04.08h0s.04.04.04.04v-.02c.05-.17.07-.02.13-.13-.06.1-.02.06-.03.14,0,.02.03.05.02.07.03-.06.03.05.08-.03,0,.02.02,0,.01.07.03-.02,0-.04,0-.07.05-.08.1.11.18,0,.06-.04.08-.12.13-.16.01.04-.02.09-.02.09.03.04.05.03.08,0,0,.02,0,.04,0,.07.02,0,.02-.09.05-.05,0,.03-.02.07-.03.1.03-.02.06-.06.08-.09,0,.04-.02.06-.03.09.03-.02.08-.04.09-.1l-.02-.02s0,.06,0,.07c-.03.05-.04-.02-.04-.05h.02c-.01-.16-.08,0-.11,0l.02-.1-.04.08s0-.09.01-.1c-.02-.05-.03.04-.05-.02,0,0,0-.02,0-.02l-.03.03s0-.07.02-.06c-.04-.06-.08.07-.09,0h0c-.07.02-.01.07-.07.15l-.02-.19v.08s-.03-.01-.03-.04c-.03.05,0,.03-.02.08-.03-.07-.09.02-.09-.1-.02.06.03.05-.01.08,0-.13-.04.02-.06-.05.02-.07.04-.03.02-.09-.03.11-.05-.03-.08-.01-.01.09-.06.03-.1.05,0-.03-.07-.06-.1-.1h0c-.02.07-.06.05-.09.06.01-.05.02-.07.04-.1h-.03s-.02.04-.04.04l.02-.07s-.09.07-.12.01c-.02.06,0,.18-.05.21,0-.03.01-.09.03-.1,0,0-.02.03-.03,0l.03-.05s-.02.05-.04.04c.01-.05,0-.04,0-.07,0,0,.01.02.02,0-.02-.01-.03-.05-.03-.08,0,.03-.01.07-.03.07-.04,0,0-.06-.01-.09-.02.03-.03,0-.05.06-.01,0,0-.04,0-.06-.03.03-.09-.01-.08.07h0s0,0,0,0h0s0,0,0,0c-.08.06-.11-.07-.18-.05v-.02s-.08,0-.12.04c-.01,0-.01-.05,0-.08-.03.01-.04.04-.07-.01.04-.03,0-.04.04-.02-.03-.03-.03-.07-.08-.02.03-.06,0-.08-.03-.07v.05s-.02,0-.04-.02l.03-.08c-.04-.12-.18.13-.18-.05-.04.05.03.05,0,.11-.03-.02-.03-.15-.04-.15-.03-.06-.08.1-.12.06,0,.03-.02.11-.06.12-.03-.02,0-.13.02-.15,0,0,0,.01,0,.02.01,0,.03-.02.03-.05v.03s-.07-.04-.04-.09c-.03.02-.02.04-.01.06-.03-.05-.07-.02-.1-.06,0,.02,0,.05,0,.05-.05-.05-.04.05-.09.05-.01-.05.04-.1-.02-.08-.02-.04.02-.08.03-.1-.06.04-.07-.06-.09-.07l.03-.02s-.03,0-.04,0v.06s-.02-.02-.02-.04c-.02.03-.02.1-.06.14,0-.03-.06.02-.05-.06.05.04.01-.08.06-.08-.01,0-.02,0-.03-.01,0,0,0-.02.01-.02-.03-.08-.05.08-.1.06.02-.04,0-.08,0-.08.02,0,0,.07-.04.1-.03-.04-.04.02-.06,0l.02.02s-.03.03-.06.04c0-.03.03-.02.02-.04-.04.07-.04-.09-.09-.05-.01-.03.02-.08,0-.11-.05.05-.03-.07-.09-.03,0,.06,0,.05-.04.1l.08-.03-.06.08s.05-.03.07-.01c-.03.04-.03.03-.03.08-.01-.09-.07.04-.09-.03l.03-.14c-.04-.08-.11.06-.17,0l.02.03c-.02.06-.04,0-.07.02,0-.05,0-.07,0-.1,0,.04-.05,0-.07.09l-.02-.07c-.05-.03-.08.13-.13.11.02-.05,0-.09.04-.12-.02,0-.03-.01-.04.02,0-.03-.06.06-.07.01,0,.02-.01.07-.03.07,0-.01,0-.02,0-.02,0,.02-.03.03-.02.09-.05-.16-.15,0-.2-.12-.04.02-.09.04-.12.04,0-.01,0-.02,0-.02-.05-.04-.02.14-.08.1-.04-.08.03-.05,0-.07-.02-.16-.07.03-.11-.06h0c-.04-.06-.06.06-.11.06,0,0,0-.01,0-.02-.02.09-.07.12-.11.16,0-.06.01-.04,0-.1-.02.01.02.1-.01.13-.02-.03-.05-.06-.07-.12h.04c-.04-.1-.05,0-.07,0v-.04c-.06.02-.04.12-.1.13v.03c0,.1-.03-.05-.04.03l-.03-.09s-.05.11-.09.14c0-.08.04-.12.06-.17-.02,0-.07.03-.07.08,0-.01.01-.04.02-.02,0,.08-.03.13-.07.14-.04-.19-.12-.02-.19-.15-.06.09-.15,0-.23.04.07.14-.02.01.02.16-.02.01-.03.01-.03,0l-.08-.07s.01-.04,0-.07c-.05,0-.03-.06-.07-.09.02.05,0,.08-.03.06l.05.06c-.04.09-.08-.11-.12-.02v-.05s-.1.03-.11.15c0-.02-.03-.06-.01-.07-.08,0-.14.16-.21.1v-.04s-.01.07-.04.04c0-.02,0-.04,0-.04,0,.01-.03.07-.05.05v-.04c-.07-.04-.09.12-.14.16-.02-.11-.08-.13-.11-.15v-.02c-.09,0-.13.11-.21.17-.07-.11-.17-.03-.26-.09.01.02,0,.09,0,.1-.02-.02-.04.08-.05-.02h0c-.03-.1-.06-.07-.09-.07v.13c-.09-.18-.19.09-.25-.08-.02.03-.04.04-.06.07v-.07c-.06-.01-.09-.02-.15,0v-.05s-.02.21-.06.21l-.02-.1c-.06,0-.13-.08-.19.02,0-.02,0-.05.01-.05-.03,0-.12-.07-.1.08,0-.09-.07,0-.1.04v-.07c-.02.09-.02.11-.06.14-.01,0-.01-.06,0-.04-.03-.03-.02.07-.06.03v-.05s-.02.02-.03.07c-.02.03-.06-.02-.07-.08,0,.04-.02.09-.04.07,0-.02,0-.04,0-.05-.06-.05-.08.08-.12.02,0-.02,0-.03,0-.04.04,0,.08,0,.08,0,0-.06-.04-.07-.01-.16-.03.05-.07.16-.11.13,0,0,0-.01,0-.02h0s-.02,0-.02,0c-.01-.01-.02-.02-.03-.02,0-.05-.04-.03-.06-.03,0,.07-.02.06,0,.12,0,0,0,0,.02-.01h0s0,0,0,0c.01,0,.03,0,.04,0-.01.04-.03.07-.05.03,0,.05-.02.09-.02.11-.03-.1-.07-.15-.08-.21-.05.04-.13.03-.16.16-.02.02-.02-.04-.02-.06,0-.01.02-.01.02-.03-.03.03-.09.01-.1.11-.04-.04.02-.08-.03-.07v-.03c-.1-.15-.17.23-.28.04,0,.01.01.02.01.03-.13-.08-.28.07-.41-.06-.04-.03-.04.03-.07.08v-.08s-.05.09-.05.09c-.06.06-.09-.19-.17-.07v.05s-.07.03-.07-.03c0,0,0,.05-.02.03v-.04s-.06.07-.06.07c-.05-.03.01-.16-.06-.17-.03.01-.08.11-.07.14.01,0,.03.03.03.06l-.02.02c0,.12-.03.23.03.32l.04-.07v.06s-.02,0-.02,0c.02.05.03,0,.05-.02,0,.03,0,.05.02.06l.04-.11s-.02.09,0,.12c.02-.05-.02-.1.02-.14.02.05.01.1.04.05,0,.03,0,.05-.01.06.02-.04.06-.01.07-.08.02.07.07-.02.07.09,0-.03.04-.09.06-.09-.04.13.07,0,.06.15.03-.12.09-.05.14-.12,0,0,0,.03-.01.02.03.01.03.05.05.07,0-.1.05-.12.07-.18.03.09-.02.11-.01.21,0-.08.06-.08.05-.14.02.06.02.03.03.11,0-.12.02-.02.04-.1.03.06,0,.11.05.08.02.04-.02.08-.02.08ZM1.77,1.07h0s-.02,0-.02,0c0,0,0,0,.02,0ZM1.84,1.07s-.02,0-.03,0c0-.02,0-.05,0-.05,0,.02.01.03.03.05ZM1.67.59s.02,0,.02.02c0,0-.01,0-.02,0h0s0-.02,0-.03Z"/>
  <path class="cls-1" d="M1.65.68h0s0,.02,0,.02v-.02s0,0,0,0Z"/>
  <polygon class="cls-1" points="8.48 .68 8.48 .68 8.48 .69 8.48 .68"/>
  <polygon class="cls-1" points="2.92 1.15 2.92 1.13 2.91 1.15 2.92 1.15"/>
  <path class="cls-1" d="M8.85,1v.02s0-.01,0-.02Z"/>
  <path class="cls-1" d="M9.03,1.04l.02.03s-.02-.02-.02-.03Z"/>
  <path class="cls-1" d="M9.17,1.1s0-.02,0-.03h0s0,.03,0,.03Z"/>
  <path class="cls-1" d="M6.97.65h0s0,0,0,0Z"/>
  <path class="cls-1" d="M7.64.67s-.02.02-.03.03c0,0,.02.01.03-.03Z"/>
  <polygon class="cls-1" points="6.28 .63 6.28 .63 6.28 .63 6.28 .63"/>
  <path class="cls-1" d="M7.58.68s.02.02.03,0c0,0-.02-.02-.03,0Z"/>
  <polygon class="cls-1" points="9.78 1.18 9.79 1.19 9.79 1.17 9.78 1.18"/>
  <path class="cls-1" d="M9.79,1.17h0s0,0,0,0Z"/>
  <path class="cls-1" d="M9.82,1.15l-.02.02s.01,0,.02-.02Z"/>
  <path class="cls-1" d="M9.6,1.14v.03s0-.01,0-.03Z"/>
  <path class="cls-1" d="M9.54,1.14s.03.06.05.04v-.02s-.03-.06-.05-.02Z"/>
  <path class="cls-1" d="M9.33.81l.04.03s-.01-.07,0-.07c-.05-.09,0,.06-.05.04Z"/>
  <path class="cls-1" d="M9.19.75s0-.04,0-.05c-.02.02-.02.03,0,.05Z"/>
  <path class="cls-1" d="M8.18.55l.02-.06s0,.02-.02.06Z"/>
  <polygon class="cls-1" points="7.9 .81 7.91 .85 7.93 .8 7.9 .81"/>
  <polygon class="cls-1" points="7.91 .34 7.92 .33 7.89 .35 7.91 .34"/>
  <path class="cls-1" d="M6.1,0v.08s.02-.1,0-.08Z"/>
  <path class="cls-1" d="M5.3.19s-.04-.06-.05-.02c.02,0,.04.03.05.02Z"/>
  <polygon class="cls-1" points="3.06 .5 3.07 .47 3.05 .5 3.06 .5"/>
</svg>