<?xml version="1.0" encoding="UTF-8"?>
<svg id="Layer_1" xmlns="http://www.w3.org/2000/svg" viewBox="0 0 9.96 3.56">
  <defs>
    <style>
      .cls-1 {
        fill: #fff;
      }
    </style>
  </defs>
  <path class="cls-1" d="M9.86,2.63c.03-.08.08-.27.06-.24l-.1.31.05-.08Z"/>
  <path class="cls-1" d="M9.94,2.02c-.06.15-.16.41-.23.71.11-.3.06-.17.19-.53.02-.03,0,.11-.04.23.03-.08,0,.08.07-.12.05-.25.03-.27-.05-.07.02-.07.04-.15.06-.21Z"/>
  <path class="cls-1" d="M8.66,1.16v.04s0-.03,0-.04Z"/>
  <path class="cls-1" d="M7.73.85s.01-.04.02-.07c0,.02-.02.04-.02.07Z"/>
  <path class="cls-1" d="M7.57.48s0,.02,0,.02c0-.03,0-.05,0-.02Z"/>
  <path class="cls-1" d="M8.66,1.16v-.11c-.03.11,0,.08,0,.11Z"/>
  <path class="cls-1" d="M9.53,2.73s.02-.04.04-.08c0,.01-.02.02-.02.03l-.02.05Z"/>
  <path class="cls-1" d="M9.12.98h0s.02-.08.04-.13l-.04.13Z"/>
  <path class="cls-1" d="M9.44,1.01s-.08.26-.11.38c.03-.11.05-.16.06-.18.01-.05.03-.11.05-.19Z"/>
  <path class="cls-1" d="M9.78,1.62l.02-.03s-.01.02-.02.03Z"/>
  <path class="cls-1" d="M8.91.87s.01-.08.02-.1c0,.03-.01.07-.02.1Z"/>
  <path class="cls-1" d="M.47,3.18s0-.03,0-.05c0,.03,0,.05,0,.05Z"/>
  <polygon class="cls-1" points=".07 1.82 .08 1.8 .05 1.64 .07 1.82"/>
  <path class="cls-1" d="M7.23.12h0s0-.02,0,0Z"/>
  <path class="cls-1" d="M4.59.79c.06.24,0,.33.09.6-.02-.11-.03-.44-.09-.6Z"/>
  <path class="cls-1" d="M9.54,2.69s-.01,0-.01,0c0,.01,0,.01.01,0Z"/>
  <path class="cls-1" d="M4.68,1.39h0s0,.03,0,.03c0-.01,0-.02,0-.03Z"/>
  <path class="cls-1" d="M6.48.37s.02.09.02.12c0-.03-.01-.06-.02-.12Z"/>
  <path class="cls-1" d="M7.05.69l-.02-.04s.01.03.02.04Z"/>
  <path class="cls-1" d="M6.28.82s-.02-.06-.02-.02c0,.01,0,.02,0,.03,0-.04,0-.06.01-.01Z"/>
  <path class="cls-1" d="M6.01.88s0,.04.01.05v-.02s-.01-.04-.01-.04Z"/>
  <path class="cls-1" d="M1.06,3.08c0-.08.01-.17.02-.25-.02.2-.06.27-.02.25Z"/>
  <path class="cls-1" d="M9.58,2.58c-.02.07-.03.1-.04.11,0,0,0,0,.01-.01.01-.04.02-.08.03-.1Z"/>
  <path class="cls-1" d="M6.58,3.02l-.04-.03s.03.04.04.03Z"/>
  <path class="cls-1" d="M3.03,3.21v.03s0,0,0-.03Z"/>
  <path class="cls-1" d="M6.44,3.05c-.02-.1-.04-.15-.05-.19,0,.02,0,.04,0,.07l.04.12Z"/>
  <path class="cls-1" d="M1.08,2.83h0s0,0,0,0Z"/>
  <path class="cls-1" d="M.79,3.47s.05-.36.07-.57c.05-.1,0,.27-.01.46.03-.1.09-.43.1-.41,0,.06,0,.08-.02.16.06-.29.08,0,.16-.37,0,.03,0,.06,0,.09.02-.18.04-.37.06-.5.02,0,.06-.23.04.01,0,0-.02.09-.04.16l.03-.1c-.03.35-.04.12-.07.37.05-.11.12-.39.14-.29-.04.34-.08.11-.08.41l-.02-.13c-.04.54-.02-.04-.06.53.04.1.08-.16.12-.06.03-.19.04-.28.07-.46.12-.33-.05.85.06.41.05-.22.11-.65.12-.42l-.07.38s.1-.54.13-.28c-.03.15-.06.12-.06.17,0,.31.06-.21.08-.21l-.04.34c.07-.04.17-.28.24-.33-.02.1-.04.2-.04.31.11-.16.18.06.25.27l.06-.29s0,.13-.01.19c.02.11.02-.19.05-.3.02-.02,0,.17-.01.26.08-.24.21-.52.25-.2l-.02.09c.04.12.1-.6.12-.32v.05c.08.13.21-.13.27.32.03-.42.1.19.12-.4.05.29.03.4.11.6.02.03.04-.37.07-.43v.31s.04-.32.04-.32l.02.37.03-.08s-.02-.14-.02-.23c.04-.14.1.22.1.37l.1-.26c0,.12-.02.17-.03.25.05-.31.01.32.06.04,0-.07,0-.18,0-.25.03.19.08.19.12.11v.21c.07.05.15-.11.23-.1-.03-.1-.04-.47-.02-.5l.02.33c0-.2-.03-.12,0-.37.03.04.03.37.02.48l.03-.11c0,.1,0,.15,0,.27,0-.2.08.32.08-.03v.1c.09,0,.12-.12.19-.14-.02-.28.01-.22.02-.45.05.09.12.3.18.27.03-.14,0-.24,0-.41.02.25.08.23.07.41.07-.05.08-.06.15-.27-.02-.1-.03-.15-.04-.24.01-.04.05.1.06.23v.03c.05-.39.31.72.33.18v.03s.04-.29.04-.29c.04.04,0,.19.05.35.03-.44.15.04.18-.25.17.74.19-.08.34.38l-.04-.17c-.01-.18.04.1.06.13-.03-.14-.05-.15-.05-.25.11-.24.41.18.58.31.06.04-.16-.91-.01-.5l.05.33c.02-.41.2-.03.24-.38,0,.08.03.17.02.17.06.23.08,0,.04-.2.02.02.03.17.06.27.04.14,0-.31.05-.08,0,.04,0,.08,0,.1,0-.12.07.02,0-.25.06.12.05-.14.11.02-.03-.31.09.13.03-.3.07.45.12.35.11.13.01.14.04.14.06.33.03-.01.04-.1,0-.33.12.53.04-.45.16.23.05-.26.1-.44.16-.56.05.45-.08.06-.02.53.04-.2.05-.6.12-.5.02.06.01.2.01.27.04-.19.11.03.15-.22,0,.04,0,.09,0,.12,0-.01.03.07.02-.14v.06c-.04-.3,0-.62,0-.78,0,.59.06.15.06.89,0-.04.01-.14,0-.27.01.04.02.12.01.28.03-.11.02-.33.05-.33,0,.1,0,.14,0,.25.01-.19.03-.39.06-.3,0,.06,0,.14,0,.14.05-.03.1-.52.16-.33-.03.43.02.14,0,.52l.03-.11v-.18s.06-.26.08-.14l-.03.15.06-.07-.02-.14c.04-.19.03-.47.06-.37-.01.04.03,0,.03.23h0c.02-.12.05-.24.07-.15-.01.12-.04.41-.04.49.04-.31.07-.08.13-.41-.01.08-.03.27-.04.31l.04-.25c0,.08,0,.12-.02.28.04.05.04-.47.06-.26,0,.02,0,.06-.02.1.04.11.11-.15.14-.02-.04.37-.05.09-.08.4.07-.06.19-.43.25-.33v-.04c.09-.52,0,.27.07.03-.01.04-.06.29-.05.23.03.09.11-.11.21-.26l-.03.13c0,.12.05.08.07.15.04-.13.05-.11.08-.3-.08.78.26-.37.19.28,0,0-.05.11-.04.11l.09-.11c.05-.23.02-.14.05-.32.04-.13.08-.23.1-.23-.07.14-.09.36-.1.49.02-.07.04-.14.05-.21-.06.41.11-.45.1-.17l-.03.12c.03-.06.09-.21.1-.17-.06.26-.05.12-.1.33.03,0,.18-.48.14-.21-.03.07-.05.07-.08.14-.05.31-.03.23-.02.29h0s0,.14,0,.14v-.09c.22-.67.11-.11.27-.54-.15.41-.07.24-.15.53-.01.08-.02.18-.04.26.08-.23-.02.2.11-.14-.02.09.02.02-.05.25.05-.07.04-.17.07-.28.13-.31,0,.42.17,0,.1-.17.2-.48.3-.62-.03.15-.11.34-.11.34-.01.15.02.13.07.03-.03.08-.04.15-.07.26.03-.02.11-.34.1-.19-.04.1-.09.27-.13.37.04-.08.13-.24.17-.33-.04.17-.09.24-.13.35.05-.07.11-.13.2-.38v-.1s-.05.22-.07.27c-.08.2,0-.1.02-.19l.04-.05c.14-.55-.1.07-.12.03l.13-.4-.13.32c.02-.11.08-.33.11-.39.03-.21-.06.14-.02-.09,0-.04.01-.05.02-.07l-.06.11c.03-.08.08-.28.07-.22.02-.24-.16.28-.09-.03v-.02c-.09.12-.08.29-.22.62l.17-.73-.09.29s-.01-.04.02-.16c-.08.19-.03.13-.1.32.04-.28-.12.1,0-.37-.07.22-.02.18-.09.33.13-.51-.06.08-.03-.16.08-.26.07-.11.1-.35-.13.44-.03-.11-.08-.03-.09.35-.09.13-.16.24.03-.12-.03-.21-.04-.35l.02-.06c-.09.35-.12.28-.17.34.05-.21.08-.3.12-.39h-.03c-.03.11-.06.17-.08.2l.07-.27s-.15.3-.16.11c-.06.25-.12.7-.2.86.03-.14.08-.37.1-.42,0,.02-.04.11-.04.05l.07-.22c0-.1-.05.19-.07.16.04-.19.03-.14.05-.29,0-.02,0,.08.02,0-.01-.04-.01-.16.01-.31-.02.11-.06.26-.08.28-.04,0,.04-.24.03-.34-.04.13-.03-.01-.09.28-.01,0,.01-.14.03-.22-.05.12-.1.02-.14.33v.02s0,0,0,.01h0s0,0,0,0c-.12.28-.1-.19-.19-.08l.02-.1c-.06.1-.1.05-.16.26-.01,0,0-.18.02-.3-.04.07-.06.18-.08.01.06-.17.01-.15.05-.12-.03-.09-.02-.25-.09.01.05-.25.01-.32-.02-.25v.18s-.04,0-.05-.01l.05-.33c-.04-.41-.23.67-.22-.01-.04.23.03.17-.02.44-.03-.05-.03-.53-.04-.53-.04-.19-.09.48-.14.35,0,.12-.02.44-.06.54-.03-.05-.02-.5.01-.59.01,0,.01.03,0,.07.02-.04.04-.09.03-.22v.12c-.02-.12-.08-.11-.06-.31-.04.11-.02.19,0,.26-.04-.17-.08,0-.13-.13,0,.07,0,.21,0,.2-.07-.15-.04.22-.09.27-.03-.18.02-.43-.04-.28-.03-.12,0-.31.01-.41-.05.23-.09-.15-.13-.19l.03-.1c-.02.06-.03.06-.04.05l.02.24s-.03-.04-.03-.14c-.01.16.02.39-.01.61-.02-.12-.06.13-.07-.18.07.1-.02-.32.04-.37-.01.04-.02.04-.04,0,0-.04,0-.07,0-.08-.08-.28-.02.36-.09.35,0-.18-.03-.34-.04-.3.03,0,.03.3,0,.43-.05-.14-.04.1-.06.09l.03.06c0,.18-.02.16-.04.21-.01-.14.02-.1,0-.16,0,.31-.09-.32-.12-.1-.03-.12-.03-.33-.06-.41-.03.23-.09-.24-.11-.04.04.23.03.18.03.41.02-.06.04-.12.06-.18l-.02.35s.04-.15.06-.12c0,.2,0,.14.02.33-.07-.35-.04.22-.1-.02l-.06-.59c-.08-.25-.06.32-.15.19l.03.1c.02.23-.04.04-.05.14-.02-.2-.04-.26-.07-.38.02.15-.05,0,0,.39l-.06-.25c-.07-.09.01.57-.05.51-.01-.22-.06-.35-.04-.51-.02,0-.04-.03-.02.1-.03-.12-.01.27-.06.09,0,.09.03.29.01.28,0-.04-.01-.1-.01-.1.01.1-.01.14.04.35-.15-.6-.14.07-.27-.44-.03.07-.06.15-.1.17,0-.06-.02-.1,0-.08-.08-.17.07.56-.02.37-.08-.31,0-.18-.04-.29-.12-.64-.05.1-.16-.26v-.04c-.07-.21-.02.26-.08.22,0,0-.01-.06-.02-.1.03.33,0,.45-.03.55-.04-.25,0-.14-.07-.39-.01.04.09.41.06.48-.04-.13-.09-.25-.15-.52l.03-.02c-.09-.35-.05.02-.08-.03l-.03-.15c-.05.06.03.45-.03.43l.03.11c.05.39-.08-.21-.04.08l-.09-.38c0,.1,0,.39-.01.47-.04-.29-.03-.45-.04-.62-.02,0-.06.04-.03.24,0-.04,0-.14.01-.08.04.31.04.47,0,.47-.14-.75-.14-.17-.28-.75-.02.29-.15-.1-.22-.04.12.58-.02.02.08.62-.01.04-.02.03-.03,0l-.11-.35c-.04-.17,0-.14-.02-.27-.05-.04-.06-.25-.1-.41.04.22.03.31,0,.23l.07.27c-.01.33-.12-.5-.13-.17v-.19c-.02.12-.11,0-.08.5-.01-.07-.04-.23-.03-.28-.07-.06-.1.54-.18.24v-.15s0,.28-.04.13c0-.06,0-.15-.02-.16,0,.05,0,.26-.04.18v-.17c-.08-.19-.07.42-.12.52-.03-.44-.1-.58-.13-.65v-.06c-.08-.05-.11.37-.18.55-.07-.48-.16-.19-.24-.46.01.08,0,.34,0,.39-.02-.09-.04.31-.05-.1h0c-.02-.39-.05-.28-.08-.29v.53c-.07-.77-.2.28-.23-.41-.02.13-.04.13-.06.26v-.28c-.04-.07-.06-.11-.12-.04l.02-.2s-.07.81-.11.83v-.42c-.05,0-.09-.37-.17,0,0-.06.01-.18.02-.2-.03-.01-.08-.29-.12.29.03-.38-.06-.04-.1.12l.03-.28c-.06.35-.06.45-.11.54,0-.04.01-.22.02-.15-.02-.15-.05.26-.07.11l.03-.18s-.04.07-.07.28c-.03.11-.05-.08-.03-.33-.02.15-.06.35-.07.28,0-.09.02-.15.03-.18-.03-.19-.11.31-.12.04,0-.09.01-.14.01-.17.04.01.07.03.07.05.03-.26,0-.3.07-.65-.05.19-.14.6-.16.48,0-.02,0-.05,0-.09v-.03s0,0-.02.04c0-.04,0-.08-.02-.08.02-.21-.02-.12-.04-.13-.03.28-.05.23-.06.46,0-.02,0-.03.02-.04,0,0,0-.01.01-.03v.02s.02-.01.04-.01c-.03.14-.06.26-.06.1-.03.18-.07.36-.08.45.03-.39,0-.61.04-.85-.07.15-.14.09-.25.6-.02.07,0-.15,0-.24.02-.05.03-.04.04-.12-.05.13-.1.04-.16.4-.02-.17.07-.33,0-.28l.02-.11c-.04-.6-.29.91-.33.15,0,.05,0,.07,0,.13-.12-.35-.32.28-.45-.25-.04-.11-.05.13-.08.31v-.3s-.05.35-.05.35c-.05.26-.13-.74-.2-.25l.02.2s-.08.12-.1-.11c0,.04,0,.21-.01.11v-.16s-.06.28-.06.28c-.07-.11-.05-.63-.15-.64-.03.07-.03.47,0,.57.01,0,.05.09.07.25v.08c.05.46.12.93.19,1.25v-.29s.02.22.02.22l-.02.02c.04.21.02.02.01-.11.02.12.03.2.04.25l-.02-.44c.02.18.02.36.05.46,0-.21-.05-.41-.04-.54.03.21.04.38.04.2.01.12.01.2.01.25,0-.14.03-.06.02-.31.03.26.05-.07.06.37,0-.11.02-.35.03-.36-.02.53.05.03.04.6.02-.47.06-.21.11-.47,0,.04-.01.11-.01.09.02.04.02.18.02.27.02-.39.06-.48.09-.72,0,.38-.04.46-.06.82.02-.32.06-.31.07-.58,0,.23,0,.11,0,.44.04-.49.02-.08.06-.38,0,.24-.03.46.01.31,0,.15-.04.32-.04.32ZM1.74,2.73h0s-.02.02-.02.02c0,0,.01,0,.02-.02ZM1.82,2.74s-.02-.02-.03-.01c0-.1.02-.2.03-.19-.01.06,0,.12,0,.2ZM1.9.78s.01.02,0,.07c0,0-.01.01-.02.03v.03c0-.05.01-.1.02-.14Z"/>
  <path class="cls-1" d="M1.83,1.15s0,.02,0,.02c0,.03,0,.05,0,.06l.02-.09h0Z"/>
  <path class="cls-1" d="M8.66,1.21h0s0,.02,0,.03c0-.01,0-.02,0-.03Z"/>
  <polygon class="cls-1" points="2.94 3.35 2.94 3.28 2.93 3.34 2.94 3.35"/>
  <path class="cls-1" d="M8.86,2.24s0,.05-.01.07c0-.02,0-.04.01-.07Z"/>
  <path class="cls-1" d="M9.02,2.34v.1c0-.06,0-.09,0-.1Z"/>
  <path class="cls-1" d="M9.11,2.51s.02-.08.03-.12h0s-.03.12-.03.12Z"/>
  <path class="cls-1" d="M7.17,2.57s0,0,0,.01c0,.06,0,.03,0-.01Z"/>
  <path class="cls-1" d="M7.74,1.92c-.01.05-.02.1-.03.13,0,.02.02.03.03-.13Z"/>
  <polygon class="cls-1" points="6.59 3.02 6.59 3.02 6.58 3.02 6.59 3.02"/>
  <path class="cls-1" d="M7.68,2.05c0,.06.02.05.03,0,0-.02-.02-.05-.03,0Z"/>
  <path class="cls-1" d="M9.64,2.79h0s0-.02.01-.03l-.02.03Z"/>
  <path class="cls-1" d="M9.66,2.76l.02-.03s0,0-.02.03Z"/>
  <path class="cls-1" d="M9.71,2.66l-.03.06s0,.01.03-.06Z"/>
  <path class="cls-1" d="M9.5,2.61l-.03.1s.02-.05.03-.1Z"/>
  <path class="cls-1" d="M9.44,2.63s-.03.22,0,.16l.02-.08c-.05.14.03-.25-.03-.08Z"/>
  <path class="cls-1" d="M9.55,1.35l.03.09c.02-.11.05-.25.08-.27.03-.33-.05.24-.1.18Z"/>
  <path class="cls-1" d="M9.45,1.16s.04-.15.06-.21c-.04.09-.05.11-.06.21Z"/>
  <path class="cls-1" d="M8.35.92l.04-.25s-.02.1-.04.25Z"/>
  <polygon class="cls-1" points="7.97 2.21 7.97 2.37 8.01 2.13 7.97 2.21"/>
  <polygon class="cls-1" points="8.06 .38 8.07 .35 8.02 .43 8.06 .38"/>
  <path class="cls-1" d="M6.02.62l.06.31c0-.06-.05-.41-.06-.31Z"/>
  <path class="cls-1" d="M5.28,1.1c-.04-.15-.09-.25-.07-.09.02.02.07.13.07.09Z"/>
  <polygon class="cls-1" points="3.16 .82 3.17 .72 3.14 .8 3.16 .82"/>
</svg>