<?xml version="1.0" encoding="UTF-8"?>
<svg id="Layer_1" xmlns="http://www.w3.org/2000/svg" viewBox="0 0 24.86 3.45">
  <defs>
    <style>
      .cls-1 {
        fill: #fff;
      }
    </style>
  </defs>
  <path class="cls-1" d="M24.86,2.4c0-.09-.04-.28-.07-.23l.03.33.04-.1Z"/>
  <path class="cls-1" d="M24.51,1.84c-.01.17-.02.45.06.75,0-.32.02-.19,0-.57.03-.04.08.09.09.22,0-.09.07.06.05-.15-.09-.24-.15-.25-.18-.03-.03-.07-.03-.16-.03-.22Z"/>
  <path class="cls-1" d="M21.01,1.7l.02.04s-.02-.03-.02-.04Z"/>
  <path class="cls-1" d="M18.9,1.49s.02-.04.03-.07c-.02.02-.03.04-.03.07Z"/>
  <path class="cls-1" d="M18.55,1.1s.01.02.02.02c0-.03-.01-.05-.02-.02Z"/>
  <path class="cls-1" d="M21.01,1.7l-.06-.1c0,.11.03.08.06.1Z"/>
  <path class="cls-1" d="M24.16,2.7s.02-.05.02-.09c0,.02-.02.03-.02.04v.05Z"/>
  <path class="cls-1" d="M21.93,1.37h.02s0-.09,0-.14l-.02.14Z"/>
  <path class="cls-1" d="M22.63,1.26s0,.27.01.39c0-.12,0-.17.01-.2,0-.05-.02-.12-.03-.2Z"/>
  <path class="cls-1" d="M23.83,1.6v-.04s0,.03,0,.04Z"/>
  <path class="cls-1" d="M21.41,1.35s0-.08-.01-.1v.1Z"/>
  <path class="cls-1" d="M1.23,3.3s0-.03,0-.05c0,.03,0,.05,0,.05Z"/>
  <polygon class="cls-1" points=".16 2.13 .17 2.12 .12 1.97 .16 2.13"/>
  <path class="cls-1" d="M17.91.68h0s0-.02,0,0Z"/>
  <path class="cls-1" d="M11.67.46c.06.25-.13.32-.03.6,0-.11.11-.44.03-.6Z"/>
  <path class="cls-1" d="M24.13,2.67s-.02,0-.03,0c.02,0,.02,0,.03,0Z"/>
  <path class="cls-1" d="M11.64,1.06h0s.01.03.01.03c0-.01,0-.02-.01-.03Z"/>
  <path class="cls-1" d="M16.38.73s0,.09,0,.12c0-.03,0-.06,0-.12Z"/>
  <path class="cls-1" d="M17.49,1.22l-.03-.04s.02.04.03.04Z"/>
  <path class="cls-1" d="M15.74,1.07s-.02-.06-.04-.03c0,.01,0,.02,0,.03.01-.04.02-.05.04,0Z"/>
  <path class="cls-1" d="M15.11,1.02s0,.04,0,.06h.02s-.03-.06-.03-.06Z"/>
  <path class="cls-1" d="M3,2.99c-.02-.08-.03-.16-.05-.25.02.2-.06.28.05.25Z"/>
  <path class="cls-1" d="M24.13,2.55c0,.07,0,.11,0,.12,0,0,.01-.01.02-.02,0-.04,0-.08-.02-.1Z"/>
  <path class="cls-1" d="M15.52,3.28l-.09-.05s.06.05.09.05Z"/>
  <path class="cls-1" d="M7.43,2.74l-.02.03s.02,0,.02-.03Z"/>
  <path class="cls-1" d="M15.14,3.24c0-.1-.02-.16-.04-.2,0,.02,0,.04-.02.07l.06.13Z"/>
  <path class="cls-1" d="M2.95,2.74h0s0,0,0,0Z"/>
  <path class="cls-1" d="M2.36,3.45c.09,0,.01-.36.01-.58.1-.11.07.27.13.45.06-.1.09-.45.14-.44,0,.06.02.08.02.16.05-.3.22-.03.27-.41,0,.03.01.06.02.09-.03-.18-.05-.37-.05-.5.04,0,.06-.24.09,0-.03,0-.02.09-.03.17l.04-.11c.07.34-.05.12-.03.38.08-.12.16-.41.23-.32.04.34-.15.12-.04.42l-.11-.12c.12.53-.06-.03.05.53.14.09.14-.18.28-.09.02-.19-.03-.28-.01-.47.17-.35.21.84.32.38.02-.23,0-.66.12-.44v.39c.12.03.03-.56.18-.31-.01.15-.09.13-.07.18.11.3.05-.22.12-.23l.04.34c.13-.06.27-.32.42-.39,0,.1-.02.21.02.31.18-.18.41.02.61.21l.06-.3s.04.13.02.19c.08.11,0-.19.02-.3.04-.02.06.17.04.26.12-.25.34-.55.49-.24l-.02.09c.11.12.09-.61.2-.34l-.02.05c.23.12.48-.16.66.28.02-.42.23.18.23-.41.14.29.1.4.29.59.05.03.06-.37.12-.43v.31s.08-.33.08-.33l.05.37.06-.08s-.05-.14-.05-.23c.09-.14.22.21.23.37l.21-.26c0,.12-.04.17-.06.25.11-.32.03.32.12.03-.01-.07,0-.18,0-.25.05.19.17.19.25.11v.21c.14.05.31-.1.49-.1-.06-.1-.05-.47,0-.5l.02.33c.03-.2-.05-.12.01-.37.07.04.05.37,0,.48l.08-.11c0,.1-.01.15-.02.27.03-.2.14.33.18-.02v.1c.18,0,.26-.11.4-.13,0-.28.06-.22.1-.45.1.09.22.31.34.29.09-.14.03-.24.07-.4,0,.26.13.23.06.42.15-.04.19-.05.39-.25-.02-.11-.04-.15-.03-.24.04-.04.08.11.07.23v.03c.21-.38.47.76.65.23v.03s.17-.27.17-.27c.08.05-.05.19,0,.35.2-.42.3.07.47-.21.09.76.43-.04.58.45v-.18c.05-.17.04.1.07.15,0-.14-.04-.16,0-.26.37-.2.73.29,1.08.48.13.06.13-.92.27-.48l-.07.33c.3-.38.55.05.84-.27-.02.07-.03.17-.05.17.04.24.21.03.22-.17.04.03,0,.18.01.28.05.15.16-.29.18-.05,0,.04-.02.08-.03.09.05-.11.17.04.15-.24.09.14.2-.11.27.06.08-.3.16.16.21-.27-.04.45.14.38.22.17-.03.13.04.15,0,.33.07,0,.15-.08.15-.31.08.55.31-.41.32.29.24-.22.46-.37.67-.46-.05.45-.22.03-.26.5.21-.17.35-.55.52-.42.04.07-.04.19-.07.27.2-.17.36.07.55-.16,0,.04-.02.09-.04.12.03-.01.07.07.08-.13l-.04.05c-.03-.3.17-.61.19-.77-.1.58.15.16.02.89.02-.04.06-.13.06-.27.03.04.03.12,0,.28.13-.1.1-.32.2-.31,0,.1-.03.14-.05.25.07-.19.13-.38.22-.29,0,.06,0,.14-.03.13.16-.02.29-.49.45-.29-.07.43.05.15.04.52l.1-.1-.03-.18c.08.01.16-.25.23-.13l-.07.15.15-.06-.08-.15c.09-.19.01-.47.11-.36-.02.04.08.01.11.23h0c.04-.11.09-.24.14-.14.01.12-.03.41-.02.49.05-.31.19-.08.25-.41-.02.08-.03.27-.02.31l.04-.25c.04.08.04.12.03.28.11.05-.02-.47.1-.27-.01.02,0,.06-.03.1.13.11.26-.16.38-.03.03.38-.11.09-.07.41.18-.07.37-.45.54-.36l-.03-.04c.02-.53.13.26.22,0-.02.04-.02.29-.02.24.12.08.24-.14.41-.31l-.02.14c.07.12.19.06.26.12.02-.14.06-.12.02-.31.28.76.41-.44.66.19-.02,0-.05.12-.03.12l.17-.14c-.03-.23-.03-.14-.08-.31.01-.14.05-.25.09-.25-.06.16.03.37.08.5-.01-.07,0-.15-.02-.22.13.4-.02-.46.12-.2v.12c.04-.07.07-.23.12-.2.05.26-.04.13-.02.35.07-.02.09-.52.18-.26-.02.08-.06.08-.09.16.1.31.1.23.16.27h0s.13.12.13.12l-.04-.08c.01-.7.17-.15.23-.61-.06.44,0,.25.03.55.04.08.1.17.09.25.03-.25.12.18.15-.18.02.1.06,0,.08.25.06-.09-.04-.17-.05-.29.07-.34.32.37.42-.11.11-.21.09-.53.19-.72.07.15.02.36.02.36.09.13.14.1.19-.02,0,.09.02.16.06.26.05-.03-.02-.36.07-.22,0,.11.02.28,0,.4.05-.1.08-.29.13-.38.04.17,0,.26,0,.37.06-.09.16-.18.14-.45l-.06-.09s.05.23.04.28c-.03.22-.1-.08-.12-.17l.04-.07c-.14-.56-.17.12-.26.1l-.02-.42-.04.36c-.04-.1-.08-.33-.05-.4-.09-.19-.04.15-.12-.06-.01-.03-.01-.05,0-.07l-.05.13c0-.09-.05-.29,0-.24-.15-.22-.14.33-.22.03v-.03c-.13.16.03.3-.04.68l-.18-.74.02.3s-.05-.03-.06-.15c-.03.21.03.13.02.33-.11-.27-.2.16-.28-.32,0,.23.1.17.03.34-.09-.52-.09.1-.19-.13,0-.27.07-.14-.02-.37,0,.46-.15-.08-.2,0,.04.36-.11.16-.2.29,0-.12-.21-.18-.31-.3v-.06c.01.37-.09.31-.16.39-.02-.22,0-.31.02-.41h-.07c0,.13-.02.19-.06.23v-.27c-.09.02-.16.34-.28.16.01.26.14.71.03.88-.01-.14-.03-.37,0-.43,0,.02-.03.12-.05.06l.03-.24c-.06-.1-.01.2-.06.18-.01-.2-.04-.14-.04-.3,0-.02.04.08.05,0-.05-.03-.11-.15-.14-.29.01.11.02.27-.02.29-.09.02-.04-.24-.1-.33-.01.14-.08,0-.06.29-.03,0-.04-.14-.05-.22-.04.13-.21.05-.14.36v.02s0,0,0,.01h0s0,0,0,0c-.14.3-.32-.16-.46-.02v-.1c-.09.11-.2.07-.26.28-.03,0-.06-.18-.05-.3-.07.07-.07.19-.17.02.07-.17-.02-.15.07-.13-.09-.08-.11-.24-.2.03.03-.25-.06-.32-.1-.24l.06.18s-.09.01-.13,0l.03-.33c-.16-.41-.33.68-.45,0-.05.23.09.17.04.44-.08-.05-.15-.53-.17-.53-.11-.19-.13.48-.24.34,0,.12.01.44-.08.54-.08-.05-.08-.51-.02-.6.02,0,.03.03.03.07.03-.04.07-.09.04-.22l-.02.12c-.04-.12-.15-.12-.11-.31-.07.11-.04.19,0,.26-.1-.18-.17-.02-.27-.14.01.07.02.21,0,.2-.15-.16-.08.22-.19.26-.05-.19.05-.43-.07-.29-.06-.13,0-.32.04-.41-.11.22-.18-.17-.23-.21l.06-.09c-.03.05-.06.05-.09.05l.02.24s-.05-.05-.05-.15c-.04.15,0,.4-.08.6-.03-.12-.13.12-.13-.2.12.12,0-.32.12-.36-.02.04-.05.03-.08-.01,0-.04,0-.06.02-.08-.1-.29-.08.35-.21.33.03-.18,0-.34-.03-.3.05,0,0,.3-.05.43-.07-.14-.1.1-.14.08l.04.07c-.03.18-.07.15-.13.2,0-.14.06-.09.04-.15-.09.31-.12-.33-.22-.13-.03-.12.02-.33,0-.42-.12.22-.09-.25-.21-.07.01.24.02.18-.07.41l.18-.15-.14.34c.05,0,.12-.14.15-.1-.07.19-.06.13-.05.33-.04-.36-.16.2-.22-.05l.05-.59c-.1-.27-.24.28-.39.12l.04.11c-.04.23-.1.02-.16.12.02-.2,0-.27-.01-.39-.01.15-.12-.02-.17.37l-.05-.27c-.12-.12-.2.55-.32.47.06-.21.01-.35.11-.5-.04,0-.08-.05-.09.09-.01-.13-.14.25-.16.06-.03.08-.05.29-.1.27,0-.04,0-.1,0-.1,0,.1-.09.13-.06.35-.08-.63-.37.01-.44-.52-.1.06-.21.11-.3.12,0-.06,0-.1.02-.08-.1-.19-.11.56-.23.35-.04-.32.08-.17.05-.29.03-.65-.17.08-.23-.31l.02-.04c-.05-.22-.18.23-.29.18,0,0,0-.06,0-.1-.1.33-.25.43-.36.51.05-.25.06-.13.05-.39-.05.03-.01.41-.11.48-.02-.14-.08-.27-.08-.54h.09c-.02-.37-.12,0-.16-.07l.02-.16c-.14.04-.17.44-.31.4v.12c-.09.38-.05-.22-.14.06v-.4c-.06.09-.21.37-.31.44.07-.29.19-.43.27-.6-.05,0-.18.02-.22.21.02-.04.06-.13.07-.07-.08.31-.17.45-.28.44.06-.76-.27-.2-.32-.8-.2.27-.37-.14-.59-.1.06.6-.06.01-.07.63-.05.04-.07.03-.07-.01l-.14-.37c-.03-.18.05-.13.05-.27-.11-.05-.04-.26-.11-.43,0,.22-.05.31-.11.23l.08.28c-.17.32-.12-.52-.29-.2l.06-.19c-.08.11-.3-.01-.39.48-.01-.07-.03-.24,0-.28-.19-.08-.44.51-.59.21l.02-.15s-.07.28-.11.13c0-.06.02-.15,0-.16-.02.05-.1.26-.15.17l.04-.17c-.19-.2-.29.41-.45.51,0-.44-.14-.58-.22-.66v-.06c-.22-.06-.37.36-.58.54-.13-.48-.43-.2-.63-.47.03.08,0,.34-.04.39-.05-.09-.13.31-.13-.1h.02c-.04-.39-.14-.28-.21-.29v.53c-.22-.77-.52.29-.65-.39-.05.13-.11.13-.15.27v-.28c-.14-.07-.21-.1-.37-.03l.03-.2c-.09-.02-.09.82-.18.84l-.04-.42c-.16.01-.34-.35-.49.04,0-.06,0-.18.03-.2-.08,0-.31-.27-.26.3-.02-.38-.17-.03-.25.14v-.28c-.06.36-.05.46-.15.56-.03-.04-.03-.22,0-.15-.09-.14-.05.27-.16.12l.03-.18c-.08-.02-.07.08-.11.29-.05.11-.16-.06-.19-.31,0,.15-.04.36-.09.29-.01-.09,0-.15.01-.18-.15-.18-.19.33-.3.07,0-.09-.02-.14-.03-.17.11,0,.2,0,.19.03-.01-.26-.11-.3-.05-.65-.06.2-.16.63-.26.51,0-.02,0-.05-.02-.09v-.03s-.03,0-.05.04c-.03-.04-.05-.07-.08-.07-.02-.21-.11-.11-.16-.12.02.28-.04.24.03.47,0-.02,0-.03.04-.05,0,0,.01-.01.02-.03v.02s.07-.02.11-.03c-.03.14-.06.27-.12.11-.01.18-.03.37-.03.46-.08-.39-.22-.59-.25-.83-.13.16-.32.13-.37.66-.03.07-.06-.15-.08-.23.02-.05.05-.05.05-.12-.07.14-.23.07-.22.44-.11-.16.03-.34-.1-.27v-.11c-.3-.57-.35.97-.7.24.02.04.04.07.05.13-.36-.3-.65.37-1.05-.12-.11-.1-.09.14-.13.33l-.06-.3-.06.36c-.1.27-.37-.7-.48-.18l.06.2c-.07-.03-.18.16-.22-.07,0,.04.02.21-.02.11l-.04-.15-.1.3c-.16-.07-.14-.61-.35-.58-.06.08-.07.51,0,.6.03,0,.1.07.15.22l-.03.1c.14.44.28.9.48,1.18v-.29s.07.21.07.21l-.05.03c.09.19.06,0,.05-.12.04.11.07.19.1.23l-.04-.45c.05.17.05.36.13.44-.01-.21-.13-.39-.1-.54.09.2.11.37.12.18.03.12.04.19.03.25,0-.15.09-.08.07-.33.09.25.13-.09.2.34,0-.11.02-.35.06-.38,0,.53.16,0,.21.57,0-.48.17-.23.25-.51,0,.04,0,.12-.02.09.06.03.09.17.14.26-.03-.39.05-.49.08-.73.11.37,0,.46.06.82-.03-.32.1-.33.05-.59.08.23.06.11.12.43-.03-.49.05-.09.07-.39.1.23.06.46.14.3.06.15-.01.33-.01.33ZM4.48,2.45h0s-.03.02-.04.02c0,0,.02-.01.04-.02ZM4.66,2.44s-.05,0-.08,0c-.01-.1-.01-.2,0-.19,0,.07.04.12.07.2ZM4.16.52s.04.01.05.07c-.01,0-.03.02-.05.04v.03c0-.05,0-.1,0-.14Z"/>
  <path class="cls-1" d="M4.13.89s0,.02-.01.02c0,.02.02.04.02.06v-.09s-.01,0-.01,0Z"/>
  <path class="cls-1" d="M21.04,1.74h0s0,.02,0,.03c0-.01,0-.02,0-.03Z"/>
  <polygon class="cls-1" points="7.22 2.88 7.22 2.81 7.21 2.87 7.22 2.88"/>
  <path class="cls-1" d="M22.13,2.64s.01.05.02.07c0-.02-.01-.04-.02-.07Z"/>
  <path class="cls-1" d="M22.59,2.66l.07.09c-.03-.05-.06-.08-.07-.09Z"/>
  <path class="cls-1" d="M22.95,2.76s0-.09,0-.12h0s0,.12,0,.12Z"/>
  <path class="cls-1" d="M17.38,3.1s0,0-.01.01c-.04.05-.01.03.01-.01Z"/>
  <path class="cls-1" d="M19.04,2.57s-.04.1-.06.13c.03.02.05.03.06-.13Z"/>
  <polygon class="cls-1" points="15.53 3.28 15.54 3.28 15.52 3.28 15.53 3.28"/>
  <path class="cls-1" d="M18.91,2.69c.03.06.05.05.08.01-.02-.02-.05-.05-.08-.01Z"/>
  <path class="cls-1" d="M24.47,2.68h.02s0-.02,0-.04v.04Z"/>
  <path class="cls-1" d="M24.48,2.65v-.04s0,0,0,.04Z"/>
  <path class="cls-1" d="M24.52,2.53l-.03.08s.03,0,.03-.08Z"/>
  <path class="cls-1" d="M23.99,2.62v.1s0-.05,0-.1Z"/>
  <path class="cls-1" d="M23.86,2.67s.11.2.15.13v-.08c0,.15-.14-.23-.15-.05Z"/>
  <path class="cls-1" d="M23.12,1.5l.12.07c-.03-.11-.08-.25-.03-.28-.18-.3.06.24-.09.21Z"/>
  <path class="cls-1" d="M22.75,1.38c.05-.06-.02-.16-.02-.22-.03.1-.03.13.02.22Z"/>
  <path class="cls-1" d="M20.25,1.54v-.26s0,.1,0,.26Z"/>
  <polygon class="cls-1" points="19.75 2.86 19.8 3.02 19.82 2.79 19.75 2.86"/>
  <polygon class="cls-1" points="19.5 1.03 19.52 1 19.45 1.09 19.5 1.03"/>
  <path class="cls-1" d="M15.24.78v.32c.03-.05.06-.41,0-.32Z"/>
  <path class="cls-1" d="M13.33.97c-.01-.16-.06-.26-.1-.11.04.02.08.15.1.11Z"/>
  <polygon class="cls-1" points="7.67 .34 7.71 .24 7.64 .33 7.67 .34"/>
</svg>